<svg xmlns="http://www.w3.org/2000/svg" viewBox="0 0 1200 1500" width="1200" height="1500" role="img" aria-label="Placeholder: BACON MELT">
  <defs>
    <linearGradient id="g" x1="0" y1="0" x2="1" y2="1">
      <stop offset="0%" stop-color="hsl(12 66% 25%)"/>
      <stop offset="55%" stop-color="hsl(6 56% 11%)"/>
      <stop offset="100%" stop-color="hsl(358 48% 7%)"/>
    </linearGradient>
    <radialGradient id="glow" cx="50%" cy="52%" r="62%">
      <stop offset="0%" stop-color="hsl(20 86% 49%)" stop-opacity="0.55"/>
      <stop offset="100%" stop-color="hsl(12 66% 15%)" stop-opacity="0"/>
    </radialGradient>
  </defs>
  <rect width="1200" height="1500" fill="url(#g)"/>
  <line x1="-1500" y1="0" x2="0" y2="1500" stroke="hsl(12 66% 37%)" stroke-width="1" opacity="0.05"/><line x1="-1415" y1="0" x2="85" y2="1500" stroke="hsl(12 66% 37%)" stroke-width="1" opacity="0.05"/><line x1="-1330" y1="0" x2="170" y2="1500" stroke="hsl(12 66% 37%)" stroke-width="1" opacity="0.05"/><line x1="-1245" y1="0" x2="255" y2="1500" stroke="hsl(12 66% 37%)" stroke-width="1" opacity="0.05"/><line x1="-1160" y1="0" x2="340" y2="1500" stroke="hsl(12 66% 37%)" stroke-width="1" opacity="0.05"/><line x1="-1075" y1="0" x2="425" y2="1500" stroke="hsl(12 66% 37%)" stroke-width="1" opacity="0.05"/><line x1="-990" y1="0" x2="510" y2="1500" stroke="hsl(12 66% 37%)" stroke-width="1" opacity="0.05"/><line x1="-905" y1="0" x2="595" y2="1500" stroke="hsl(12 66% 37%)" stroke-width="1" opacity="0.05"/><line x1="-820" y1="0" x2="680" y2="1500" stroke="hsl(12 66% 37%)" stroke-width="1" opacity="0.05"/><line x1="-735" y1="0" x2="765" y2="1500" stroke="hsl(12 66% 37%)" stroke-width="1" opacity="0.05"/><line x1="-650" y1="0" x2="850" y2="1500" stroke="hsl(12 66% 37%)" stroke-width="1" opacity="0.05"/><line x1="-565" y1="0" x2="935" y2="1500" stroke="hsl(12 66% 37%)" stroke-width="1" opacity="0.05"/><line x1="-480" y1="0" x2="1020" y2="1500" stroke="hsl(12 66% 37%)" stroke-width="1" opacity="0.05"/><line x1="-395" y1="0" x2="1105" y2="1500" stroke="hsl(12 66% 37%)" stroke-width="1" opacity="0.05"/><line x1="-310" y1="0" x2="1190" y2="1500" stroke="hsl(12 66% 37%)" stroke-width="1" opacity="0.05"/><line x1="-225" y1="0" x2="1275" y2="1500" stroke="hsl(12 66% 37%)" stroke-width="1" opacity="0.05"/><line x1="-140" y1="0" x2="1360" y2="1500" stroke="hsl(12 66% 37%)" stroke-width="1" opacity="0.05"/><line x1="-55" y1="0" x2="1445" y2="1500" stroke="hsl(12 66% 37%)" stroke-width="1" opacity="0.05"/><line x1="30" y1="0" x2="1530" y2="1500" stroke="hsl(12 66% 37%)" stroke-width="1" opacity="0.05"/><line x1="115" y1="0" x2="1615" y2="1500" stroke="hsl(12 66% 37%)" stroke-width="1" opacity="0.05"/><line x1="200" y1="0" x2="1700" y2="1500" stroke="hsl(12 66% 37%)" stroke-width="1" opacity="0.05"/><line x1="285" y1="0" x2="1785" y2="1500" stroke="hsl(12 66% 37%)" stroke-width="1" opacity="0.05"/><line x1="370" y1="0" x2="1870" y2="1500" stroke="hsl(12 66% 37%)" stroke-width="1" opacity="0.05"/><line x1="455" y1="0" x2="1955" y2="1500" stroke="hsl(12 66% 37%)" stroke-width="1" opacity="0.05"/><line x1="540" y1="0" x2="2040" y2="1500" stroke="hsl(12 66% 37%)" stroke-width="1" opacity="0.05"/><line x1="625" y1="0" x2="2125" y2="1500" stroke="hsl(12 66% 37%)" stroke-width="1" opacity="0.05"/><line x1="710" y1="0" x2="2210" y2="1500" stroke="hsl(12 66% 37%)" stroke-width="1" opacity="0.05"/><line x1="795" y1="0" x2="2295" y2="1500" stroke="hsl(12 66% 37%)" stroke-width="1" opacity="0.05"/><line x1="880" y1="0" x2="2380" y2="1500" stroke="hsl(12 66% 37%)" stroke-width="1" opacity="0.05"/><line x1="965" y1="0" x2="2465" y2="1500" stroke="hsl(12 66% 37%)" stroke-width="1" opacity="0.05"/><line x1="1050" y1="0" x2="2550" y2="1500" stroke="hsl(12 66% 37%)" stroke-width="1" opacity="0.05"/><line x1="1135" y1="0" x2="2635" y2="1500" stroke="hsl(12 66% 37%)" stroke-width="1" opacity="0.05"/><line x1="1220" y1="0" x2="2720" y2="1500" stroke="hsl(12 66% 37%)" stroke-width="1" opacity="0.05"/><line x1="1305" y1="0" x2="2805" y2="1500" stroke="hsl(12 66% 37%)" stroke-width="1" opacity="0.05"/><line x1="1390" y1="0" x2="2890" y2="1500" stroke="hsl(12 66% 37%)" stroke-width="1" opacity="0.05"/><line x1="1475" y1="0" x2="2975" y2="1500" stroke="hsl(12 66% 37%)" stroke-width="1" opacity="0.05"/><line x1="1560" y1="0" x2="3060" y2="1500" stroke="hsl(12 66% 37%)" stroke-width="1" opacity="0.05"/><line x1="1645" y1="0" x2="3145" y2="1500" stroke="hsl(12 66% 37%)" stroke-width="1" opacity="0.05"/><line x1="1730" y1="0" x2="3230" y2="1500" stroke="hsl(12 66% 37%)" stroke-width="1" opacity="0.05"/><line x1="1815" y1="0" x2="3315" y2="1500" stroke="hsl(12 66% 37%)" stroke-width="1" opacity="0.05"/><line x1="1900" y1="0" x2="3400" y2="1500" stroke="hsl(12 66% 37%)" stroke-width="1" opacity="0.05"/><line x1="1985" y1="0" x2="3485" y2="1500" stroke="hsl(12 66% 37%)" stroke-width="1" opacity="0.05"/><line x1="2070" y1="0" x2="3570" y2="1500" stroke="hsl(12 66% 37%)" stroke-width="1" opacity="0.05"/><line x1="2155" y1="0" x2="3655" y2="1500" stroke="hsl(12 66% 37%)" stroke-width="1" opacity="0.05"/><line x1="2240" y1="0" x2="3740" y2="1500" stroke="hsl(12 66% 37%)" stroke-width="1" opacity="0.05"/><line x1="2325" y1="0" x2="3825" y2="1500" stroke="hsl(12 66% 37%)" stroke-width="1" opacity="0.05"/><line x1="2410" y1="0" x2="3910" y2="1500" stroke="hsl(12 66% 37%)" stroke-width="1" opacity="0.05"/><line x1="2495" y1="0" x2="3995" y2="1500" stroke="hsl(12 66% 37%)" stroke-width="1" opacity="0.05"/><line x1="2580" y1="0" x2="4080" y2="1500" stroke="hsl(12 66% 37%)" stroke-width="1" opacity="0.05"/><line x1="2665" y1="0" x2="4165" y2="1500" stroke="hsl(12 66% 37%)" stroke-width="1" opacity="0.05"/>
  <rect width="1200" height="1500" fill="url(#glow)"/>
  <circle cx="600" cy="780" r="192" fill="none" stroke="hsl(12 66% 43%)" stroke-width="3.0" opacity="0.20"/><circle cx="600" cy="780" r="294" fill="none" stroke="hsl(15 66% 41%)" stroke-width="2.7" opacity="0.18"/><circle cx="600" cy="780" r="396" fill="none" stroke="hsl(18 66% 39%)" stroke-width="2.4" opacity="0.15"/><circle cx="600" cy="780" r="498" fill="none" stroke="hsl(21 66% 37%)" stroke-width="2.1" opacity="0.12"/><circle cx="600" cy="780" r="600" fill="none" stroke="hsl(24 66% 35%)" stroke-width="1.8" opacity="0.10"/><circle cx="600" cy="780" r="702" fill="none" stroke="hsl(27 66% 33%)" stroke-width="1.5" opacity="0.08"/><circle cx="600" cy="780" r="804" fill="none" stroke="hsl(30 66% 31%)" stroke-width="1.2" opacity="0.05"/>
  <circle cx="663" cy="308" r="2" fill="hsl(24 66% 22%)" opacity="0.05"/><circle cx="1097" cy="192" r="1" fill="hsl(22 66% 22%)" opacity="0.15"/><circle cx="439" cy="76" r="1" fill="hsl(17 66% 34%)" opacity="0.05"/><circle cx="185" cy="1128" r="2" fill="hsl(5 66% 39%)" opacity="0.05"/><circle cx="457" cy="1291" r="3" fill="hsl(22 66% 22%)" opacity="0.11"/><circle cx="812" cy="101" r="1" fill="hsl(5 66% 38%)" opacity="0.14"/><circle cx="593" cy="858" r="1" fill="hsl(21 66% 24%)" opacity="0.11"/><circle cx="1147" cy="1396" r="1" fill="hsl(7 66% 39%)" opacity="0.11"/><circle cx="384" cy="762" r="1" fill="hsl(21 66% 43%)" opacity="0.05"/><circle cx="122" cy="1267" r="1" fill="hsl(19 66% 42%)" opacity="0.10"/><circle cx="643" cy="953" r="2" fill="hsl(18 66% 32%)" opacity="0.08"/><circle cx="368" cy="1431" r="1" fill="hsl(6 66% 39%)" opacity="0.08"/><circle cx="1013" cy="703" r="3" fill="hsl(18 66% 30%)" opacity="0.11"/><circle cx="149" cy="241" r="2" fill="hsl(17 66% 26%)" opacity="0.13"/><circle cx="311" cy="1001" r="2" fill="hsl(5 66% 42%)" opacity="0.05"/><circle cx="1142" cy="1173" r="1" fill="hsl(14 66% 43%)" opacity="0.08"/><circle cx="1017" cy="1187" r="2" fill="hsl(6 66% 23%)" opacity="0.15"/><circle cx="970" cy="1427" r="3" fill="hsl(6 66% 22%)" opacity="0.13"/><circle cx="634" cy="1325" r="2" fill="hsl(25 66% 35%)" opacity="0.07"/><circle cx="790" cy="1369" r="1" fill="hsl(4 66% 35%)" opacity="0.08"/><circle cx="239" cy="1011" r="1" fill="hsl(10 66% 45%)" opacity="0.07"/><circle cx="507" cy="814" r="2" fill="hsl(19 66% 23%)" opacity="0.06"/><circle cx="822" cy="1125" r="1" fill="hsl(8 66% 34%)" opacity="0.14"/><circle cx="570" cy="1446" r="2" fill="hsl(15 66% 42%)" opacity="0.15"/><circle cx="472" cy="309" r="1" fill="hsl(9 66% 25%)" opacity="0.07"/><circle cx="477" cy="24" r="2" fill="hsl(22 66% 26%)" opacity="0.07"/><circle cx="8" cy="298" r="2" fill="hsl(21 66% 32%)" opacity="0.11"/><circle cx="652" cy="257" r="3" fill="hsl(20 66% 40%)" opacity="0.12"/><circle cx="110" cy="935" r="3" fill="hsl(21 66% 33%)" opacity="0.09"/><circle cx="807" cy="212" r="2" fill="hsl(24 66% 33%)" opacity="0.05"/><circle cx="137" cy="427" r="2" fill="hsl(9 66% 24%)" opacity="0.08"/><circle cx="107" cy="209" r="1" fill="hsl(22 66% 25%)" opacity="0.10"/><circle cx="744" cy="1256" r="1" fill="hsl(6 66% 27%)" opacity="0.11"/><circle cx="304" cy="1299" r="1" fill="hsl(15 66% 40%)" opacity="0.08"/><circle cx="251" cy="236" r="2" fill="hsl(18 66% 36%)" opacity="0.10"/><circle cx="175" cy="295" r="1" fill="hsl(14 66% 44%)" opacity="0.07"/><circle cx="330" cy="1057" r="1" fill="hsl(10 66% 37%)" opacity="0.08"/><circle cx="1112" cy="55" r="2" fill="hsl(13 66% 41%)" opacity="0.14"/><circle cx="534" cy="1061" r="1" fill="hsl(9 66% 32%)" opacity="0.13"/><circle cx="1090" cy="1109" r="2" fill="hsl(14 66% 41%)" opacity="0.07"/><circle cx="399" cy="490" r="2" fill="hsl(11 66% 27%)" opacity="0.10"/><circle cx="728" cy="1497" r="1" fill="hsl(4 66% 29%)" opacity="0.10"/><circle cx="396" cy="1418" r="2" fill="hsl(15 66% 35%)" opacity="0.14"/><circle cx="715" cy="746" r="1" fill="hsl(11 66% 24%)" opacity="0.07"/><circle cx="402" cy="691" r="1" fill="hsl(19 66% 40%)" opacity="0.16"/><circle cx="3" cy="981" r="3" fill="hsl(15 66% 41%)" opacity="0.05"/><circle cx="245" cy="795" r="3" fill="hsl(10 66% 36%)" opacity="0.15"/><circle cx="888" cy="1302" r="1" fill="hsl(6 66% 44%)" opacity="0.09"/><circle cx="822" cy="173" r="3" fill="hsl(9 66% 26%)" opacity="0.16"/><circle cx="56" cy="309" r="2" fill="hsl(18 66% 41%)" opacity="0.06"/><circle cx="971" cy="1346" r="1" fill="hsl(8 66% 38%)" opacity="0.11"/><circle cx="43" cy="29" r="3" fill="hsl(24 66% 24%)" opacity="0.10"/><circle cx="285" cy="888" r="1" fill="hsl(10 66% 21%)" opacity="0.07"/><circle cx="599" cy="1026" r="1" fill="hsl(22 66% 31%)" opacity="0.07"/><circle cx="858" cy="268" r="1" fill="hsl(15 66% 35%)" opacity="0.12"/><circle cx="1058" cy="861" r="2" fill="hsl(8 66% 38%)" opacity="0.06"/><circle cx="1045" cy="38" r="2" fill="hsl(9 66% 40%)" opacity="0.04"/><circle cx="306" cy="352" r="1" fill="hsl(19 66% 40%)" opacity="0.13"/><circle cx="1139" cy="126" r="1" fill="hsl(25 66% 37%)" opacity="0.10"/><circle cx="988" cy="217" r="2" fill="hsl(5 66% 28%)" opacity="0.06"/><circle cx="86" cy="200" r="2" fill="hsl(18 66% 38%)" opacity="0.04"/><circle cx="129" cy="907" r="1" fill="hsl(23 66% 37%)" opacity="0.11"/><circle cx="408" cy="1418" r="1" fill="hsl(18 66% 37%)" opacity="0.10"/><circle cx="979" cy="1039" r="1" fill="hsl(26 66% 37%)" opacity="0.15"/><circle cx="531" cy="1145" r="1" fill="hsl(18 66% 25%)" opacity="0.09"/><circle cx="803" cy="905" r="1" fill="hsl(6 66% 42%)" opacity="0.07"/><circle cx="149" cy="435" r="3" fill="hsl(13 66% 24%)" opacity="0.15"/><circle cx="316" cy="1466" r="3" fill="hsl(25 66% 32%)" opacity="0.06"/><circle cx="281" cy="957" r="1" fill="hsl(7 66% 33%)" opacity="0.15"/><circle cx="333" cy="1367" r="1" fill="hsl(9 66% 43%)" opacity="0.09"/><circle cx="1055" cy="827" r="1" fill="hsl(17 66% 27%)" opacity="0.08"/><circle cx="188" cy="1478" r="1" fill="hsl(4 66% 31%)" opacity="0.11"/><circle cx="902" cy="1440" r="1" fill="hsl(16 66% 31%)" opacity="0.10"/><circle cx="605" cy="1049" r="1" fill="hsl(7 66% 28%)" opacity="0.16"/><circle cx="214" cy="172" r="1" fill="hsl(12 66% 22%)" opacity="0.15"/><circle cx="371" cy="553" r="1" fill="hsl(17 66% 42%)" opacity="0.14"/><circle cx="529" cy="831" r="1" fill="hsl(21 66% 37%)" opacity="0.11"/><circle cx="669" cy="183" r="1" fill="hsl(5 66% 43%)" opacity="0.06"/><circle cx="148" cy="550" r="1" fill="hsl(24 66% 23%)" opacity="0.14"/><circle cx="171" cy="1245" r="1" fill="hsl(6 66% 29%)" opacity="0.14"/><circle cx="929" cy="23" r="1" fill="hsl(21 66% 34%)" opacity="0.15"/><circle cx="548" cy="1273" r="1" fill="hsl(5 66% 37%)" opacity="0.13"/><circle cx="224" cy="330" r="1" fill="hsl(5 66% 26%)" opacity="0.06"/><circle cx="638" cy="1287" r="1" fill="hsl(20 66% 45%)" opacity="0.06"/><circle cx="912" cy="1024" r="3" fill="hsl(9 66% 29%)" opacity="0.08"/><circle cx="37" cy="512" r="1" fill="hsl(4 66% 21%)" opacity="0.13"/><circle cx="1128" cy="388" r="2" fill="hsl(19 66% 28%)" opacity="0.15"/><circle cx="217" cy="1348" r="3" fill="hsl(17 66% 42%)" opacity="0.10"/><circle cx="805" cy="1037" r="1" fill="hsl(26 66% 27%)" opacity="0.16"/><circle cx="701" cy="406" r="3" fill="hsl(24 66% 25%)" opacity="0.09"/><circle cx="711" cy="111" r="1" fill="hsl(4 66% 23%)" opacity="0.12"/><circle cx="523" cy="882" r="1" fill="hsl(5 66% 23%)" opacity="0.12"/><circle cx="780" cy="1036" r="3" fill="hsl(13 66% 40%)" opacity="0.07"/><circle cx="600" cy="92" r="2" fill="hsl(9 66% 26%)" opacity="0.07"/><circle cx="7" cy="539" r="1" fill="hsl(14 66% 38%)" opacity="0.08"/><circle cx="70" cy="633" r="1" fill="hsl(15 66% 26%)" opacity="0.04"/><circle cx="781" cy="171" r="2" fill="hsl(12 66% 37%)" opacity="0.12"/><circle cx="508" cy="1033" r="1" fill="hsl(6 66% 29%)" opacity="0.14"/><circle cx="294" cy="818" r="2" fill="hsl(5 66% 33%)" opacity="0.04"/><circle cx="623" cy="1289" r="1" fill="hsl(6 66% 39%)" opacity="0.15"/><circle cx="317" cy="1346" r="3" fill="hsl(23 66% 33%)" opacity="0.13"/><circle cx="1012" cy="306" r="1" fill="hsl(23 66% 41%)" opacity="0.06"/><circle cx="1050" cy="1284" r="2" fill="hsl(26 66% 37%)" opacity="0.06"/><circle cx="1072" cy="1032" r="2" fill="hsl(4 66% 42%)" opacity="0.11"/><circle cx="470" cy="174" r="1" fill="hsl(5 66% 25%)" opacity="0.12"/><circle cx="214" cy="771" r="2" fill="hsl(21 66% 22%)" opacity="0.12"/><circle cx="1088" cy="1394" r="1" fill="hsl(19 66% 29%)" opacity="0.04"/><circle cx="143" cy="1030" r="2" fill="hsl(6 66% 42%)" opacity="0.10"/><circle cx="970" cy="516" r="1" fill="hsl(12 66% 28%)" opacity="0.13"/><circle cx="420" cy="472" r="3" fill="hsl(24 66% 35%)" opacity="0.10"/><circle cx="783" cy="157" r="2" fill="hsl(25 66% 30%)" opacity="0.13"/><circle cx="406" cy="158" r="2" fill="hsl(8 66% 31%)" opacity="0.07"/><circle cx="623" cy="1272" r="2" fill="hsl(8 66% 21%)" opacity="0.10"/><circle cx="994" cy="550" r="3" fill="hsl(7 66% 43%)" opacity="0.07"/><circle cx="1002" cy="595" r="3" fill="hsl(20 66% 30%)" opacity="0.10"/><circle cx="955" cy="242" r="2" fill="hsl(10 66% 30%)" opacity="0.16"/><circle cx="968" cy="35" r="1" fill="hsl(18 66% 23%)" opacity="0.14"/><circle cx="920" cy="550" r="2" fill="hsl(10 66% 27%)" opacity="0.05"/><circle cx="184" cy="290" r="3" fill="hsl(20 66% 29%)" opacity="0.15"/><circle cx="271" cy="1235" r="3" fill="hsl(20 66% 29%)" opacity="0.15"/><circle cx="747" cy="473" r="2" fill="hsl(19 66% 33%)" opacity="0.04"/><circle cx="7" cy="1006" r="3" fill="hsl(18 66% 33%)" opacity="0.08"/><circle cx="288" cy="852" r="1" fill="hsl(16 66% 31%)" opacity="0.05"/><circle cx="678" cy="3" r="1" fill="hsl(14 66% 33%)" opacity="0.05"/><circle cx="400" cy="1460" r="1" fill="hsl(13 66% 29%)" opacity="0.08"/><circle cx="804" cy="799" r="2" fill="hsl(6 66% 32%)" opacity="0.15"/><circle cx="563" cy="98" r="1" fill="hsl(7 66% 22%)" opacity="0.14"/><circle cx="584" cy="1300" r="1" fill="hsl(11 66% 29%)" opacity="0.09"/><circle cx="646" cy="388" r="1" fill="hsl(17 66% 21%)" opacity="0.14"/><circle cx="819" cy="1134" r="2" fill="hsl(10 66% 44%)" opacity="0.05"/><circle cx="841" cy="923" r="2" fill="hsl(8 66% 41%)" opacity="0.14"/><circle cx="994" cy="100" r="2" fill="hsl(8 66% 26%)" opacity="0.10"/><circle cx="703" cy="577" r="1" fill="hsl(12 66% 44%)" opacity="0.13"/><circle cx="532" cy="831" r="3" fill="hsl(11 66% 30%)" opacity="0.10"/><circle cx="807" cy="245" r="1" fill="hsl(24 66% 26%)" opacity="0.05"/><circle cx="1025" cy="1018" r="2" fill="hsl(11 66% 35%)" opacity="0.15"/><circle cx="921" cy="875" r="1" fill="hsl(21 66% 27%)" opacity="0.07"/><circle cx="357" cy="700" r="2" fill="hsl(6 66% 31%)" opacity="0.07"/><circle cx="529" cy="1166" r="1" fill="hsl(4 66% 44%)" opacity="0.14"/><circle cx="784" cy="847" r="3" fill="hsl(20 66% 27%)" opacity="0.09"/><circle cx="692" cy="127" r="2" fill="hsl(12 66% 39%)" opacity="0.16"/><circle cx="257" cy="1406" r="2" fill="hsl(20 66% 41%)" opacity="0.13"/><circle cx="442" cy="189" r="1" fill="hsl(11 66% 33%)" opacity="0.09"/><circle cx="913" cy="884" r="1" fill="hsl(4 66% 25%)" opacity="0.04"/><circle cx="969" cy="1202" r="2" fill="hsl(4 66% 23%)" opacity="0.09"/><circle cx="1081" cy="958" r="2" fill="hsl(11 66% 24%)" opacity="0.07"/><circle cx="311" cy="1069" r="3" fill="hsl(7 66% 44%)" opacity="0.12"/><circle cx="936" cy="174" r="2" fill="hsl(5 66% 21%)" opacity="0.13"/><circle cx="476" cy="1166" r="1" fill="hsl(24 66% 43%)" opacity="0.08"/><circle cx="262" cy="1283" r="1" fill="hsl(20 66% 41%)" opacity="0.09"/><circle cx="229" cy="203" r="1" fill="hsl(13 66% 37%)" opacity="0.15"/><circle cx="392" cy="794" r="1" fill="hsl(11 66% 40%)" opacity="0.04"/><circle cx="1100" cy="617" r="2" fill="hsl(12 66% 31%)" opacity="0.12"/><circle cx="496" cy="973" r="2" fill="hsl(11 66% 38%)" opacity="0.07"/><circle cx="843" cy="1443" r="3" fill="hsl(13 66% 22%)" opacity="0.04"/><circle cx="1020" cy="1381" r="3" fill="hsl(17 66% 23%)" opacity="0.07"/><circle cx="869" cy="758" r="1" fill="hsl(19 66% 22%)" opacity="0.12"/><circle cx="861" cy="742" r="3" fill="hsl(16 66% 27%)" opacity="0.04"/><circle cx="598" cy="1033" r="1" fill="hsl(10 66% 36%)" opacity="0.16"/><circle cx="638" cy="397" r="1" fill="hsl(18 66% 28%)" opacity="0.07"/><circle cx="604" cy="223" r="2" fill="hsl(19 66% 40%)" opacity="0.06"/><circle cx="457" cy="993" r="2" fill="hsl(25 66% 22%)" opacity="0.15"/><circle cx="299" cy="805" r="1" fill="hsl(10 66% 21%)" opacity="0.16"/><circle cx="290" cy="850" r="1" fill="hsl(26 66% 22%)" opacity="0.06"/><circle cx="920" cy="1458" r="1" fill="hsl(7 66% 23%)" opacity="0.15"/><circle cx="674" cy="390" r="1" fill="hsl(24 66% 37%)" opacity="0.13"/><circle cx="65" cy="638" r="3" fill="hsl(16 66% 32%)" opacity="0.16"/><circle cx="906" cy="346" r="1" fill="hsl(4 66% 23%)" opacity="0.07"/><circle cx="719" cy="860" r="1" fill="hsl(21 66% 45%)" opacity="0.06"/><circle cx="730" cy="632" r="2" fill="hsl(6 66% 22%)" opacity="0.12"/><circle cx="400" cy="763" r="2" fill="hsl(18 66% 27%)" opacity="0.08"/><circle cx="971" cy="62" r="3" fill="hsl(17 66% 28%)" opacity="0.14"/><circle cx="828" cy="83" r="2" fill="hsl(5 66% 35%)" opacity="0.05"/><circle cx="126" cy="526" r="1" fill="hsl(6 66% 40%)" opacity="0.08"/><circle cx="557" cy="686" r="2" fill="hsl(5 66% 29%)" opacity="0.13"/><circle cx="648" cy="564" r="1" fill="hsl(4 66% 44%)" opacity="0.13"/><circle cx="133" cy="49" r="1" fill="hsl(7 66% 36%)" opacity="0.13"/><circle cx="953" cy="791" r="1" fill="hsl(17 66% 36%)" opacity="0.06"/><circle cx="1016" cy="374" r="1" fill="hsl(13 66% 43%)" opacity="0.13"/><circle cx="483" cy="671" r="1" fill="hsl(18 66% 32%)" opacity="0.13"/><circle cx="161" cy="1048" r="1" fill="hsl(16 66% 45%)" opacity="0.06"/><circle cx="835" cy="132" r="3" fill="hsl(5 66% 36%)" opacity="0.11"/><circle cx="667" cy="329" r="2" fill="hsl(7 66% 23%)" opacity="0.07"/><circle cx="172" cy="426" r="1" fill="hsl(17 66% 36%)" opacity="0.16"/><circle cx="915" cy="354" r="1" fill="hsl(8 66% 34%)" opacity="0.10"/><circle cx="481" cy="1102" r="3" fill="hsl(7 66% 45%)" opacity="0.14"/><circle cx="601" cy="572" r="2" fill="hsl(12 66% 32%)" opacity="0.07"/><circle cx="533" cy="407" r="2" fill="hsl(11 66% 26%)" opacity="0.07"/><circle cx="314" cy="576" r="2" fill="hsl(10 66% 31%)" opacity="0.05"/><circle cx="515" cy="503" r="2" fill="hsl(20 66% 28%)" opacity="0.12"/><circle cx="205" cy="1338" r="2" fill="hsl(5 66% 24%)" opacity="0.04"/><circle cx="473" cy="918" r="1" fill="hsl(5 66% 30%)" opacity="0.07"/><circle cx="103" cy="388" r="2" fill="hsl(22 66% 27%)" opacity="0.15"/><circle cx="762" cy="1049" r="1" fill="hsl(18 66% 40%)" opacity="0.07"/><circle cx="12" cy="216" r="3" fill="hsl(23 66% 43%)" opacity="0.11"/><circle cx="445" cy="76" r="1" fill="hsl(14 66% 25%)" opacity="0.05"/><circle cx="522" cy="78" r="2" fill="hsl(24 66% 27%)" opacity="0.14"/><circle cx="670" cy="837" r="3" fill="hsl(15 66% 26%)" opacity="0.11"/><circle cx="159" cy="416" r="1" fill="hsl(19 66% 38%)" opacity="0.10"/><circle cx="835" cy="207" r="2" fill="hsl(25 66% 38%)" opacity="0.06"/><circle cx="1093" cy="186" r="3" fill="hsl(9 66% 33%)" opacity="0.12"/><circle cx="839" cy="580" r="3" fill="hsl(13 66% 34%)" opacity="0.15"/><circle cx="639" cy="1160" r="1" fill="hsl(17 66% 34%)" opacity="0.04"/><circle cx="745" cy="1319" r="1" fill="hsl(16 66% 44%)" opacity="0.09"/><circle cx="12" cy="889" r="1" fill="hsl(17 66% 24%)" opacity="0.14"/><circle cx="831" cy="1183" r="1" fill="hsl(18 66% 45%)" opacity="0.06"/><circle cx="30" cy="105" r="2" fill="hsl(8 66% 41%)" opacity="0.14"/><circle cx="812" cy="182" r="2" fill="hsl(23 66% 32%)" opacity="0.13"/><circle cx="351" cy="298" r="1" fill="hsl(13 66% 26%)" opacity="0.10"/><circle cx="137" cy="222" r="2" fill="hsl(19 66% 45%)" opacity="0.14"/><circle cx="404" cy="617" r="1" fill="hsl(5 66% 36%)" opacity="0.08"/><circle cx="794" cy="176" r="3" fill="hsl(23 66% 43%)" opacity="0.14"/><circle cx="328" cy="1311" r="1" fill="hsl(23 66% 33%)" opacity="0.11"/><circle cx="401" cy="968" r="1" fill="hsl(22 66% 27%)" opacity="0.05"/><circle cx="1060" cy="320" r="2" fill="hsl(15 66% 24%)" opacity="0.06"/><circle cx="394" cy="84" r="2" fill="hsl(25 66% 22%)" opacity="0.12"/><circle cx="663" cy="241" r="2" fill="hsl(23 66% 35%)" opacity="0.11"/><circle cx="627" cy="1329" r="2" fill="hsl(13 66% 39%)" opacity="0.07"/><circle cx="797" cy="1349" r="1" fill="hsl(18 66% 37%)" opacity="0.09"/><circle cx="47" cy="7" r="2" fill="hsl(19 66% 35%)" opacity="0.07"/>
  <g fill="none" stroke="hsl(22 80% 62%)" stroke-width="2" opacity="0.5">
    <path d="M42 84 V42 H84"/>
    <path d="M1116 42 H1158 V84"/>
    <path d="M42 1416 V1458 H84"/>
    <path d="M1158 1416 V1458 H1116"/>
  </g>
  <g text-anchor="middle" font-family="Helvetica Neue, Arial, sans-serif"><text x="600" y="750" font-size="57" font-weight="700" letter-spacing="3.4" fill="#f4efe6" opacity="0.92">BACON MELT</text><text x="600" y="816" font-size="23" letter-spacing="5.1" fill="#f4efe6" opacity="0.45">PLACEHOLDER · 1200×1500</text></g>
</svg>
