<svg xmlns="http://www.w3.org/2000/svg" viewBox="0 0 1400 1000" width="1400" height="1000" role="img" aria-label="Placeholder: O FOGO">
  <defs>
    <linearGradient id="g" x1="0" y1="0" x2="1" y2="1">
      <stop offset="0%" stop-color="hsl(22 74% 24%)"/>
      <stop offset="55%" stop-color="hsl(16 64% 10%)"/>
      <stop offset="100%" stop-color="hsl(8 56% 6%)"/>
    </linearGradient>
    <radialGradient id="glow" cx="50%" cy="52%" r="62%">
      <stop offset="0%" stop-color="hsl(30 94% 48%)" stop-opacity="0.55"/>
      <stop offset="100%" stop-color="hsl(22 74% 14%)" stop-opacity="0"/>
    </radialGradient>
  </defs>
  <rect width="1400" height="1000" fill="url(#g)"/>
  <line x1="-1000" y1="0" x2="0" y2="1000" stroke="hsl(22 74% 36%)" stroke-width="1" opacity="0.05"/><line x1="-929" y1="0" x2="71" y2="1000" stroke="hsl(22 74% 36%)" stroke-width="1" opacity="0.05"/><line x1="-858" y1="0" x2="142" y2="1000" stroke="hsl(22 74% 36%)" stroke-width="1" opacity="0.05"/><line x1="-787" y1="0" x2="213" y2="1000" stroke="hsl(22 74% 36%)" stroke-width="1" opacity="0.05"/><line x1="-716" y1="0" x2="284" y2="1000" stroke="hsl(22 74% 36%)" stroke-width="1" opacity="0.05"/><line x1="-645" y1="0" x2="355" y2="1000" stroke="hsl(22 74% 36%)" stroke-width="1" opacity="0.05"/><line x1="-574" y1="0" x2="426" y2="1000" stroke="hsl(22 74% 36%)" stroke-width="1" opacity="0.05"/><line x1="-503" y1="0" x2="497" y2="1000" stroke="hsl(22 74% 36%)" stroke-width="1" opacity="0.05"/><line x1="-432" y1="0" x2="568" y2="1000" stroke="hsl(22 74% 36%)" stroke-width="1" opacity="0.05"/><line x1="-361" y1="0" x2="639" y2="1000" stroke="hsl(22 74% 36%)" stroke-width="1" opacity="0.05"/><line x1="-290" y1="0" x2="710" y2="1000" stroke="hsl(22 74% 36%)" stroke-width="1" opacity="0.05"/><line x1="-219" y1="0" x2="781" y2="1000" stroke="hsl(22 74% 36%)" stroke-width="1" opacity="0.05"/><line x1="-148" y1="0" x2="852" y2="1000" stroke="hsl(22 74% 36%)" stroke-width="1" opacity="0.05"/><line x1="-77" y1="0" x2="923" y2="1000" stroke="hsl(22 74% 36%)" stroke-width="1" opacity="0.05"/><line x1="-6" y1="0" x2="994" y2="1000" stroke="hsl(22 74% 36%)" stroke-width="1" opacity="0.05"/><line x1="65" y1="0" x2="1065" y2="1000" stroke="hsl(22 74% 36%)" stroke-width="1" opacity="0.05"/><line x1="136" y1="0" x2="1136" y2="1000" stroke="hsl(22 74% 36%)" stroke-width="1" opacity="0.05"/><line x1="207" y1="0" x2="1207" y2="1000" stroke="hsl(22 74% 36%)" stroke-width="1" opacity="0.05"/><line x1="278" y1="0" x2="1278" y2="1000" stroke="hsl(22 74% 36%)" stroke-width="1" opacity="0.05"/><line x1="349" y1="0" x2="1349" y2="1000" stroke="hsl(22 74% 36%)" stroke-width="1" opacity="0.05"/><line x1="420" y1="0" x2="1420" y2="1000" stroke="hsl(22 74% 36%)" stroke-width="1" opacity="0.05"/><line x1="491" y1="0" x2="1491" y2="1000" stroke="hsl(22 74% 36%)" stroke-width="1" opacity="0.05"/><line x1="562" y1="0" x2="1562" y2="1000" stroke="hsl(22 74% 36%)" stroke-width="1" opacity="0.05"/><line x1="633" y1="0" x2="1633" y2="1000" stroke="hsl(22 74% 36%)" stroke-width="1" opacity="0.05"/><line x1="704" y1="0" x2="1704" y2="1000" stroke="hsl(22 74% 36%)" stroke-width="1" opacity="0.05"/><line x1="775" y1="0" x2="1775" y2="1000" stroke="hsl(22 74% 36%)" stroke-width="1" opacity="0.05"/><line x1="846" y1="0" x2="1846" y2="1000" stroke="hsl(22 74% 36%)" stroke-width="1" opacity="0.05"/><line x1="917" y1="0" x2="1917" y2="1000" stroke="hsl(22 74% 36%)" stroke-width="1" opacity="0.05"/><line x1="988" y1="0" x2="1988" y2="1000" stroke="hsl(22 74% 36%)" stroke-width="1" opacity="0.05"/><line x1="1059" y1="0" x2="2059" y2="1000" stroke="hsl(22 74% 36%)" stroke-width="1" opacity="0.05"/><line x1="1130" y1="0" x2="2130" y2="1000" stroke="hsl(22 74% 36%)" stroke-width="1" opacity="0.05"/><line x1="1201" y1="0" x2="2201" y2="1000" stroke="hsl(22 74% 36%)" stroke-width="1" opacity="0.05"/><line x1="1272" y1="0" x2="2272" y2="1000" stroke="hsl(22 74% 36%)" stroke-width="1" opacity="0.05"/><line x1="1343" y1="0" x2="2343" y2="1000" stroke="hsl(22 74% 36%)" stroke-width="1" opacity="0.05"/><line x1="1414" y1="0" x2="2414" y2="1000" stroke="hsl(22 74% 36%)" stroke-width="1" opacity="0.05"/><line x1="1485" y1="0" x2="2485" y2="1000" stroke="hsl(22 74% 36%)" stroke-width="1" opacity="0.05"/><line x1="1556" y1="0" x2="2556" y2="1000" stroke="hsl(22 74% 36%)" stroke-width="1" opacity="0.05"/><line x1="1627" y1="0" x2="2627" y2="1000" stroke="hsl(22 74% 36%)" stroke-width="1" opacity="0.05"/><line x1="1698" y1="0" x2="2698" y2="1000" stroke="hsl(22 74% 36%)" stroke-width="1" opacity="0.05"/><line x1="1769" y1="0" x2="2769" y2="1000" stroke="hsl(22 74% 36%)" stroke-width="1" opacity="0.05"/><line x1="1840" y1="0" x2="2840" y2="1000" stroke="hsl(22 74% 36%)" stroke-width="1" opacity="0.05"/><line x1="1911" y1="0" x2="2911" y2="1000" stroke="hsl(22 74% 36%)" stroke-width="1" opacity="0.05"/><line x1="1982" y1="0" x2="2982" y2="1000" stroke="hsl(22 74% 36%)" stroke-width="1" opacity="0.05"/><line x1="2053" y1="0" x2="3053" y2="1000" stroke="hsl(22 74% 36%)" stroke-width="1" opacity="0.05"/><line x1="2124" y1="0" x2="3124" y2="1000" stroke="hsl(22 74% 36%)" stroke-width="1" opacity="0.05"/><line x1="2195" y1="0" x2="3195" y2="1000" stroke="hsl(22 74% 36%)" stroke-width="1" opacity="0.05"/><line x1="2266" y1="0" x2="3266" y2="1000" stroke="hsl(22 74% 36%)" stroke-width="1" opacity="0.05"/><line x1="2337" y1="0" x2="3337" y2="1000" stroke="hsl(22 74% 36%)" stroke-width="1" opacity="0.05"/>
  <rect width="1400" height="1000" fill="url(#glow)"/>
  <circle cx="700" cy="520" r="160" fill="none" stroke="hsl(22 74% 42%)" stroke-width="3.0" opacity="0.20"/><circle cx="700" cy="520" r="245" fill="none" stroke="hsl(25 74% 40%)" stroke-width="2.7" opacity="0.18"/><circle cx="700" cy="520" r="330" fill="none" stroke="hsl(28 74% 38%)" stroke-width="2.4" opacity="0.15"/><circle cx="700" cy="520" r="415" fill="none" stroke="hsl(31 74% 36%)" stroke-width="2.1" opacity="0.12"/><circle cx="700" cy="520" r="500" fill="none" stroke="hsl(34 74% 34%)" stroke-width="1.8" opacity="0.10"/><circle cx="700" cy="520" r="585" fill="none" stroke="hsl(37 74% 32%)" stroke-width="1.5" opacity="0.08"/><circle cx="700" cy="520" r="670" fill="none" stroke="hsl(40 74% 30%)" stroke-width="1.2" opacity="0.05"/>
  <circle cx="948" cy="627" r="1" fill="hsl(22 74% 24%)" opacity="0.06"/><circle cx="1385" cy="6" r="1" fill="hsl(30 74% 34%)" opacity="0.15"/><circle cx="165" cy="342" r="2" fill="hsl(33 74% 42%)" opacity="0.04"/><circle cx="776" cy="173" r="3" fill="hsl(28 74% 43%)" opacity="0.09"/><circle cx="344" cy="243" r="1" fill="hsl(17 74% 24%)" opacity="0.10"/><circle cx="1209" cy="64" r="3" fill="hsl(26 74% 43%)" opacity="0.15"/><circle cx="596" cy="209" r="3" fill="hsl(21 74% 43%)" opacity="0.14"/><circle cx="179" cy="791" r="1" fill="hsl(20 74% 32%)" opacity="0.07"/><circle cx="88" cy="204" r="3" fill="hsl(14 74% 33%)" opacity="0.05"/><circle cx="775" cy="866" r="2" fill="hsl(18 74% 20%)" opacity="0.07"/><circle cx="229" cy="987" r="2" fill="hsl(14 74% 23%)" opacity="0.13"/><circle cx="404" cy="916" r="1" fill="hsl(24 74% 20%)" opacity="0.15"/><circle cx="272" cy="552" r="1" fill="hsl(30 74% 22%)" opacity="0.11"/><circle cx="1100" cy="943" r="1" fill="hsl(27 74% 22%)" opacity="0.09"/><circle cx="1308" cy="783" r="1" fill="hsl(36 74% 38%)" opacity="0.06"/><circle cx="1247" cy="736" r="1" fill="hsl(15 74% 28%)" opacity="0.11"/><circle cx="1241" cy="872" r="1" fill="hsl(22 74% 43%)" opacity="0.16"/><circle cx="70" cy="124" r="3" fill="hsl(26 74% 27%)" opacity="0.06"/><circle cx="1034" cy="44" r="3" fill="hsl(25 74% 41%)" opacity="0.10"/><circle cx="1157" cy="793" r="3" fill="hsl(16 74% 31%)" opacity="0.05"/><circle cx="1196" cy="374" r="2" fill="hsl(20 74% 32%)" opacity="0.06"/><circle cx="1176" cy="763" r="1" fill="hsl(26 74% 39%)" opacity="0.08"/><circle cx="887" cy="114" r="1" fill="hsl(21 74% 34%)" opacity="0.07"/><circle cx="181" cy="314" r="3" fill="hsl(23 74% 23%)" opacity="0.10"/><circle cx="112" cy="26" r="2" fill="hsl(31 74% 33%)" opacity="0.10"/><circle cx="508" cy="579" r="3" fill="hsl(16 74% 33%)" opacity="0.12"/><circle cx="196" cy="987" r="2" fill="hsl(30 74% 31%)" opacity="0.15"/><circle cx="1147" cy="378" r="1" fill="hsl(35 74% 29%)" opacity="0.06"/><circle cx="530" cy="30" r="1" fill="hsl(19 74% 28%)" opacity="0.15"/><circle cx="246" cy="621" r="1" fill="hsl(14 74% 21%)" opacity="0.05"/><circle cx="427" cy="805" r="2" fill="hsl(23 74% 39%)" opacity="0.04"/><circle cx="726" cy="291" r="1" fill="hsl(29 74% 37%)" opacity="0.07"/><circle cx="177" cy="765" r="2" fill="hsl(23 74% 42%)" opacity="0.05"/><circle cx="860" cy="462" r="1" fill="hsl(36 74% 37%)" opacity="0.13"/><circle cx="784" cy="602" r="1" fill="hsl(35 74% 42%)" opacity="0.07"/><circle cx="1223" cy="901" r="2" fill="hsl(29 74% 31%)" opacity="0.05"/><circle cx="99" cy="283" r="2" fill="hsl(18 74% 25%)" opacity="0.14"/><circle cx="172" cy="166" r="1" fill="hsl(14 74% 26%)" opacity="0.06"/><circle cx="935" cy="605" r="2" fill="hsl(31 74% 32%)" opacity="0.05"/><circle cx="1123" cy="493" r="2" fill="hsl(22 74% 37%)" opacity="0.05"/><circle cx="1333" cy="29" r="2" fill="hsl(32 74% 33%)" opacity="0.11"/><circle cx="1072" cy="539" r="2" fill="hsl(34 74% 22%)" opacity="0.15"/><circle cx="1175" cy="555" r="1" fill="hsl(16 74% 43%)" opacity="0.07"/><circle cx="281" cy="105" r="1" fill="hsl(36 74% 35%)" opacity="0.09"/><circle cx="1003" cy="910" r="3" fill="hsl(15 74% 41%)" opacity="0.11"/><circle cx="764" cy="249" r="2" fill="hsl(21 74% 31%)" opacity="0.14"/><circle cx="1173" cy="639" r="2" fill="hsl(21 74% 21%)" opacity="0.11"/><circle cx="173" cy="627" r="1" fill="hsl(35 74% 33%)" opacity="0.09"/><circle cx="141" cy="82" r="1" fill="hsl(15 74% 39%)" opacity="0.13"/><circle cx="172" cy="66" r="1" fill="hsl(25 74% 39%)" opacity="0.10"/><circle cx="1096" cy="486" r="1" fill="hsl(36 74% 44%)" opacity="0.05"/><circle cx="173" cy="801" r="1" fill="hsl(14 74% 34%)" opacity="0.15"/><circle cx="1208" cy="152" r="2" fill="hsl(29 74% 24%)" opacity="0.05"/><circle cx="714" cy="687" r="1" fill="hsl(28 74% 44%)" opacity="0.06"/><circle cx="452" cy="111" r="1" fill="hsl(15 74% 23%)" opacity="0.05"/><circle cx="1321" cy="999" r="1" fill="hsl(25 74% 23%)" opacity="0.13"/><circle cx="957" cy="641" r="2" fill="hsl(20 74% 31%)" opacity="0.14"/><circle cx="166" cy="241" r="1" fill="hsl(22 74% 44%)" opacity="0.10"/><circle cx="404" cy="15" r="2" fill="hsl(22 74% 39%)" opacity="0.04"/><circle cx="211" cy="531" r="2" fill="hsl(15 74% 28%)" opacity="0.10"/><circle cx="645" cy="619" r="1" fill="hsl(34 74% 21%)" opacity="0.12"/><circle cx="270" cy="307" r="1" fill="hsl(19 74% 31%)" opacity="0.13"/><circle cx="825" cy="953" r="1" fill="hsl(23 74% 23%)" opacity="0.04"/><circle cx="899" cy="253" r="2" fill="hsl(33 74% 30%)" opacity="0.10"/><circle cx="710" cy="901" r="2" fill="hsl(27 74% 26%)" opacity="0.05"/><circle cx="616" cy="472" r="2" fill="hsl(33 74% 38%)" opacity="0.09"/><circle cx="788" cy="190" r="1" fill="hsl(26 74% 21%)" opacity="0.08"/><circle cx="349" cy="325" r="2" fill="hsl(14 74% 26%)" opacity="0.07"/><circle cx="746" cy="674" r="1" fill="hsl(34 74% 22%)" opacity="0.08"/><circle cx="915" cy="985" r="2" fill="hsl(33 74% 44%)" opacity="0.15"/><circle cx="1372" cy="751" r="2" fill="hsl(20 74% 42%)" opacity="0.11"/><circle cx="686" cy="77" r="1" fill="hsl(35 74% 37%)" opacity="0.09"/><circle cx="465" cy="887" r="3" fill="hsl(24 74% 44%)" opacity="0.14"/><circle cx="1052" cy="514" r="1" fill="hsl(28 74% 42%)" opacity="0.04"/><circle cx="1092" cy="210" r="1" fill="hsl(21 74% 20%)" opacity="0.16"/><circle cx="644" cy="43" r="1" fill="hsl(18 74% 30%)" opacity="0.06"/><circle cx="196" cy="521" r="2" fill="hsl(34 74% 32%)" opacity="0.09"/><circle cx="1201" cy="518" r="1" fill="hsl(30 74% 42%)" opacity="0.08"/><circle cx="552" cy="206" r="1" fill="hsl(26 74% 38%)" opacity="0.06"/><circle cx="1254" cy="795" r="1" fill="hsl(32 74% 25%)" opacity="0.04"/><circle cx="41" cy="285" r="2" fill="hsl(30 74% 44%)" opacity="0.12"/><circle cx="191" cy="279" r="1" fill="hsl(18 74% 36%)" opacity="0.09"/><circle cx="1392" cy="237" r="1" fill="hsl(24 74% 24%)" opacity="0.13"/><circle cx="711" cy="761" r="2" fill="hsl(15 74% 37%)" opacity="0.07"/><circle cx="705" cy="26" r="2" fill="hsl(19 74% 37%)" opacity="0.13"/><circle cx="1370" cy="780" r="1" fill="hsl(28 74% 24%)" opacity="0.08"/><circle cx="1112" cy="137" r="2" fill="hsl(20 74% 36%)" opacity="0.06"/><circle cx="1164" cy="433" r="1" fill="hsl(31 74% 21%)" opacity="0.15"/><circle cx="726" cy="508" r="1" fill="hsl(15 74% 31%)" opacity="0.14"/><circle cx="816" cy="907" r="2" fill="hsl(27 74% 40%)" opacity="0.13"/><circle cx="390" cy="569" r="1" fill="hsl(19 74% 38%)" opacity="0.05"/><circle cx="726" cy="266" r="1" fill="hsl(29 74% 36%)" opacity="0.06"/><circle cx="1087" cy="12" r="3" fill="hsl(31 74% 30%)" opacity="0.12"/><circle cx="354" cy="28" r="1" fill="hsl(36 74% 38%)" opacity="0.11"/><circle cx="410" cy="673" r="1" fill="hsl(23 74% 42%)" opacity="0.06"/><circle cx="609" cy="405" r="1" fill="hsl(16 74% 32%)" opacity="0.14"/><circle cx="502" cy="464" r="2" fill="hsl(36 74% 21%)" opacity="0.08"/><circle cx="294" cy="904" r="2" fill="hsl(36 74% 26%)" opacity="0.12"/><circle cx="1071" cy="946" r="2" fill="hsl(26 74% 44%)" opacity="0.13"/><circle cx="1027" cy="155" r="2" fill="hsl(15 74% 32%)" opacity="0.06"/><circle cx="852" cy="493" r="3" fill="hsl(19 74% 41%)" opacity="0.12"/><circle cx="193" cy="524" r="2" fill="hsl(30 74% 28%)" opacity="0.07"/><circle cx="1254" cy="790" r="1" fill="hsl(31 74% 20%)" opacity="0.16"/><circle cx="120" cy="662" r="2" fill="hsl(28 74% 29%)" opacity="0.15"/><circle cx="211" cy="211" r="1" fill="hsl(20 74% 34%)" opacity="0.13"/><circle cx="521" cy="317" r="1" fill="hsl(21 74% 20%)" opacity="0.06"/><circle cx="1302" cy="424" r="1" fill="hsl(25 74% 40%)" opacity="0.08"/><circle cx="1145" cy="937" r="1" fill="hsl(31 74% 41%)" opacity="0.04"/><circle cx="429" cy="91" r="1" fill="hsl(20 74% 20%)" opacity="0.07"/><circle cx="898" cy="366" r="1" fill="hsl(31 74% 44%)" opacity="0.12"/><circle cx="154" cy="96" r="3" fill="hsl(27 74% 42%)" opacity="0.09"/><circle cx="361" cy="60" r="1" fill="hsl(32 74% 24%)" opacity="0.10"/><circle cx="863" cy="372" r="3" fill="hsl(35 74% 26%)" opacity="0.15"/><circle cx="714" cy="740" r="2" fill="hsl(30 74% 33%)" opacity="0.04"/><circle cx="1117" cy="320" r="1" fill="hsl(28 74% 29%)" opacity="0.07"/><circle cx="1090" cy="433" r="3" fill="hsl(17 74% 21%)" opacity="0.15"/><circle cx="1393" cy="674" r="1" fill="hsl(27 74% 28%)" opacity="0.08"/><circle cx="766" cy="66" r="2" fill="hsl(30 74% 43%)" opacity="0.06"/><circle cx="1327" cy="121" r="3" fill="hsl(34 74% 30%)" opacity="0.09"/><circle cx="39" cy="316" r="2" fill="hsl(16 74% 32%)" opacity="0.07"/><circle cx="399" cy="996" r="2" fill="hsl(29 74% 25%)" opacity="0.11"/><circle cx="495" cy="299" r="3" fill="hsl(14 74% 36%)" opacity="0.05"/><circle cx="1182" cy="5" r="1" fill="hsl(28 74% 39%)" opacity="0.05"/><circle cx="1036" cy="280" r="3" fill="hsl(19 74% 22%)" opacity="0.10"/><circle cx="1357" cy="315" r="1" fill="hsl(27 74% 25%)" opacity="0.06"/><circle cx="968" cy="291" r="3" fill="hsl(29 74% 44%)" opacity="0.10"/><circle cx="643" cy="697" r="2" fill="hsl(28 74% 21%)" opacity="0.11"/><circle cx="1299" cy="726" r="2" fill="hsl(16 74% 22%)" opacity="0.09"/><circle cx="690" cy="75" r="2" fill="hsl(19 74% 38%)" opacity="0.15"/><circle cx="1248" cy="153" r="3" fill="hsl(29 74% 42%)" opacity="0.09"/><circle cx="1017" cy="962" r="1" fill="hsl(32 74% 36%)" opacity="0.04"/><circle cx="583" cy="448" r="3" fill="hsl(32 74% 22%)" opacity="0.14"/><circle cx="1167" cy="715" r="1" fill="hsl(31 74% 25%)" opacity="0.07"/><circle cx="675" cy="523" r="3" fill="hsl(28 74% 36%)" opacity="0.15"/><circle cx="762" cy="331" r="1" fill="hsl(19 74% 42%)" opacity="0.16"/><circle cx="652" cy="338" r="2" fill="hsl(16 74% 30%)" opacity="0.15"/><circle cx="580" cy="931" r="1" fill="hsl(32 74% 28%)" opacity="0.08"/><circle cx="122" cy="623" r="2" fill="hsl(29 74% 22%)" opacity="0.08"/><circle cx="476" cy="462" r="1" fill="hsl(26 74% 34%)" opacity="0.10"/><circle cx="428" cy="168" r="3" fill="hsl(17 74% 38%)" opacity="0.05"/><circle cx="191" cy="791" r="3" fill="hsl(23 74% 20%)" opacity="0.10"/><circle cx="595" cy="796" r="1" fill="hsl(28 74% 43%)" opacity="0.06"/><circle cx="178" cy="272" r="1" fill="hsl(17 74% 44%)" opacity="0.14"/><circle cx="325" cy="256" r="3" fill="hsl(25 74% 28%)" opacity="0.07"/><circle cx="1380" cy="761" r="1" fill="hsl(29 74% 38%)" opacity="0.10"/><circle cx="835" cy="989" r="3" fill="hsl(35 74% 28%)" opacity="0.10"/><circle cx="826" cy="713" r="1" fill="hsl(22 74% 28%)" opacity="0.16"/><circle cx="376" cy="769" r="1" fill="hsl(33 74% 39%)" opacity="0.09"/><circle cx="932" cy="511" r="1" fill="hsl(33 74% 23%)" opacity="0.14"/><circle cx="794" cy="403" r="2" fill="hsl(24 74% 24%)" opacity="0.07"/><circle cx="483" cy="366" r="2" fill="hsl(34 74% 22%)" opacity="0.05"/><circle cx="1" cy="371" r="2" fill="hsl(28 74% 31%)" opacity="0.12"/><circle cx="1388" cy="458" r="2" fill="hsl(34 74% 20%)" opacity="0.12"/><circle cx="525" cy="701" r="2" fill="hsl(24 74% 25%)" opacity="0.08"/><circle cx="600" cy="814" r="1" fill="hsl(22 74% 39%)" opacity="0.06"/><circle cx="250" cy="27" r="1" fill="hsl(32 74% 24%)" opacity="0.14"/><circle cx="35" cy="697" r="3" fill="hsl(19 74% 39%)" opacity="0.05"/><circle cx="824" cy="131" r="2" fill="hsl(36 74% 42%)" opacity="0.12"/><circle cx="1204" cy="668" r="2" fill="hsl(16 74% 33%)" opacity="0.06"/><circle cx="220" cy="662" r="2" fill="hsl(18 74% 24%)" opacity="0.10"/><circle cx="532" cy="7" r="1" fill="hsl(17 74% 38%)" opacity="0.11"/><circle cx="577" cy="662" r="1" fill="hsl(14 74% 27%)" opacity="0.13"/><circle cx="1145" cy="764" r="1" fill="hsl(30 74% 41%)" opacity="0.14"/><circle cx="566" cy="203" r="1" fill="hsl(35 74% 30%)" opacity="0.12"/><circle cx="481" cy="869" r="1" fill="hsl(20 74% 20%)" opacity="0.13"/><circle cx="12" cy="743" r="2" fill="hsl(14 74% 42%)" opacity="0.12"/><circle cx="389" cy="307" r="3" fill="hsl(23 74% 37%)" opacity="0.05"/><circle cx="1127" cy="820" r="1" fill="hsl(35 74% 36%)" opacity="0.06"/><circle cx="192" cy="83" r="1" fill="hsl(24 74% 21%)" opacity="0.10"/><circle cx="1360" cy="189" r="3" fill="hsl(32 74% 41%)" opacity="0.07"/><circle cx="734" cy="100" r="2" fill="hsl(22 74% 44%)" opacity="0.13"/><circle cx="294" cy="59" r="1" fill="hsl(25 74% 42%)" opacity="0.05"/><circle cx="295" cy="783" r="1" fill="hsl(36 74% 20%)" opacity="0.15"/><circle cx="1161" cy="243" r="1" fill="hsl(14 74% 38%)" opacity="0.05"/><circle cx="10" cy="725" r="3" fill="hsl(25 74% 42%)" opacity="0.05"/><circle cx="396" cy="145" r="3" fill="hsl(32 74% 42%)" opacity="0.10"/><circle cx="946" cy="325" r="3" fill="hsl(33 74% 34%)" opacity="0.11"/><circle cx="459" cy="201" r="2" fill="hsl(22 74% 34%)" opacity="0.05"/><circle cx="1175" cy="212" r="1" fill="hsl(28 74% 25%)" opacity="0.10"/><circle cx="870" cy="382" r="3" fill="hsl(19 74% 30%)" opacity="0.10"/><circle cx="194" cy="686" r="1" fill="hsl(18 74% 22%)" opacity="0.14"/><circle cx="143" cy="989" r="1" fill="hsl(30 74% 28%)" opacity="0.05"/><circle cx="564" cy="451" r="2" fill="hsl(20 74% 32%)" opacity="0.07"/><circle cx="1312" cy="404" r="2" fill="hsl(24 74% 31%)" opacity="0.06"/><circle cx="142" cy="898" r="1" fill="hsl(15 74% 30%)" opacity="0.13"/><circle cx="1210" cy="946" r="1" fill="hsl(28 74% 33%)" opacity="0.12"/><circle cx="1236" cy="681" r="1" fill="hsl(24 74% 25%)" opacity="0.13"/><circle cx="906" cy="261" r="1" fill="hsl(15 74% 44%)" opacity="0.07"/><circle cx="479" cy="27" r="1" fill="hsl(26 74% 21%)" opacity="0.06"/><circle cx="214" cy="332" r="1" fill="hsl(34 74% 32%)" opacity="0.05"/><circle cx="1236" cy="81" r="2" fill="hsl(23 74% 31%)" opacity="0.07"/><circle cx="970" cy="887" r="1" fill="hsl(27 74% 25%)" opacity="0.05"/><circle cx="746" cy="438" r="2" fill="hsl(25 74% 29%)" opacity="0.11"/><circle cx="55" cy="642" r="3" fill="hsl(36 74% 33%)" opacity="0.08"/><circle cx="991" cy="16" r="1" fill="hsl(20 74% 27%)" opacity="0.05"/><circle cx="781" cy="362" r="3" fill="hsl(26 74% 39%)" opacity="0.12"/><circle cx="712" cy="431" r="2" fill="hsl(35 74% 41%)" opacity="0.16"/><circle cx="397" cy="980" r="1" fill="hsl(26 74% 27%)" opacity="0.16"/><circle cx="751" cy="898" r="1" fill="hsl(23 74% 22%)" opacity="0.09"/><circle cx="632" cy="316" r="2" fill="hsl(32 74% 26%)" opacity="0.09"/><circle cx="1036" cy="696" r="1" fill="hsl(27 74% 38%)" opacity="0.08"/><circle cx="699" cy="186" r="1" fill="hsl(16 74% 44%)" opacity="0.05"/><circle cx="914" cy="346" r="1" fill="hsl(17 74% 39%)" opacity="0.07"/><circle cx="282" cy="957" r="1" fill="hsl(35 74% 27%)" opacity="0.11"/><circle cx="1217" cy="916" r="1" fill="hsl(15 74% 25%)" opacity="0.08"/><circle cx="1024" cy="131" r="1" fill="hsl(14 74% 26%)" opacity="0.10"/><circle cx="1320" cy="678" r="3" fill="hsl(26 74% 27%)" opacity="0.15"/><circle cx="629" cy="884" r="1" fill="hsl(26 74% 21%)" opacity="0.13"/><circle cx="554" cy="798" r="1" fill="hsl(30 74% 34%)" opacity="0.07"/><circle cx="744" cy="378" r="1" fill="hsl(15 74% 20%)" opacity="0.08"/><circle cx="165" cy="668" r="3" fill="hsl(33 74% 20%)" opacity="0.16"/><circle cx="205" cy="172" r="1" fill="hsl(21 74% 41%)" opacity="0.10"/><circle cx="62" cy="793" r="2" fill="hsl(34 74% 40%)" opacity="0.08"/><circle cx="212" cy="871" r="2" fill="hsl(21 74% 24%)" opacity="0.10"/><circle cx="1152" cy="324" r="3" fill="hsl(14 74% 37%)" opacity="0.05"/><circle cx="1191" cy="52" r="3" fill="hsl(31 74% 36%)" opacity="0.04"/><circle cx="99" cy="109" r="3" fill="hsl(24 74% 22%)" opacity="0.08"/><circle cx="239" cy="53" r="3" fill="hsl(19 74% 41%)" opacity="0.11"/><circle cx="805" cy="619" r="3" fill="hsl(20 74% 38%)" opacity="0.11"/><circle cx="1385" cy="953" r="2" fill="hsl(36 74% 43%)" opacity="0.04"/>
  <g fill="none" stroke="hsl(32 80% 62%)" stroke-width="2" opacity="0.5">
    <path d="M35 70 V35 H70"/>
    <path d="M1330 35 H1365 V70"/>
    <path d="M35 930 V965 H70"/>
    <path d="M1365 930 V965 H1330"/>
  </g>
  <g text-anchor="middle" font-family="Helvetica Neue, Arial, sans-serif"><text x="700" y="500" font-size="48" font-weight="700" letter-spacing="2.9" fill="#f4efe6" opacity="0.92">O FOGO</text><text x="700" y="555" font-size="20" letter-spacing="4.4" fill="#f4efe6" opacity="0.45">PLACEHOLDER · 1400×1000</text></g>
</svg>
