<svg xmlns="http://www.w3.org/2000/svg" viewBox="0 0 1200 1400" width="1200" height="1400" role="img" aria-label="Placeholder: A EQUIPE">
  <defs>
    <linearGradient id="g" x1="0" y1="0" x2="1" y2="1">
      <stop offset="0%" stop-color="hsl(30 34% 22%)"/>
      <stop offset="55%" stop-color="hsl(24 24% 8%)"/>
      <stop offset="100%" stop-color="hsl(16 16% 4%)"/>
    </linearGradient>
    <radialGradient id="glow" cx="50%" cy="52%" r="62%">
      <stop offset="0%" stop-color="hsl(38 54% 46%)" stop-opacity="0.55"/>
      <stop offset="100%" stop-color="hsl(30 34% 12%)" stop-opacity="0"/>
    </radialGradient>
  </defs>
  <rect width="1200" height="1400" fill="url(#g)"/>
  <line x1="-1400" y1="0" x2="0" y2="1400" stroke="hsl(30 34% 34%)" stroke-width="1" opacity="0.05"/><line x1="-1315" y1="0" x2="85" y2="1400" stroke="hsl(30 34% 34%)" stroke-width="1" opacity="0.05"/><line x1="-1230" y1="0" x2="170" y2="1400" stroke="hsl(30 34% 34%)" stroke-width="1" opacity="0.05"/><line x1="-1145" y1="0" x2="255" y2="1400" stroke="hsl(30 34% 34%)" stroke-width="1" opacity="0.05"/><line x1="-1060" y1="0" x2="340" y2="1400" stroke="hsl(30 34% 34%)" stroke-width="1" opacity="0.05"/><line x1="-975" y1="0" x2="425" y2="1400" stroke="hsl(30 34% 34%)" stroke-width="1" opacity="0.05"/><line x1="-890" y1="0" x2="510" y2="1400" stroke="hsl(30 34% 34%)" stroke-width="1" opacity="0.05"/><line x1="-805" y1="0" x2="595" y2="1400" stroke="hsl(30 34% 34%)" stroke-width="1" opacity="0.05"/><line x1="-720" y1="0" x2="680" y2="1400" stroke="hsl(30 34% 34%)" stroke-width="1" opacity="0.05"/><line x1="-635" y1="0" x2="765" y2="1400" stroke="hsl(30 34% 34%)" stroke-width="1" opacity="0.05"/><line x1="-550" y1="0" x2="850" y2="1400" stroke="hsl(30 34% 34%)" stroke-width="1" opacity="0.05"/><line x1="-465" y1="0" x2="935" y2="1400" stroke="hsl(30 34% 34%)" stroke-width="1" opacity="0.05"/><line x1="-380" y1="0" x2="1020" y2="1400" stroke="hsl(30 34% 34%)" stroke-width="1" opacity="0.05"/><line x1="-295" y1="0" x2="1105" y2="1400" stroke="hsl(30 34% 34%)" stroke-width="1" opacity="0.05"/><line x1="-210" y1="0" x2="1190" y2="1400" stroke="hsl(30 34% 34%)" stroke-width="1" opacity="0.05"/><line x1="-125" y1="0" x2="1275" y2="1400" stroke="hsl(30 34% 34%)" stroke-width="1" opacity="0.05"/><line x1="-40" y1="0" x2="1360" y2="1400" stroke="hsl(30 34% 34%)" stroke-width="1" opacity="0.05"/><line x1="45" y1="0" x2="1445" y2="1400" stroke="hsl(30 34% 34%)" stroke-width="1" opacity="0.05"/><line x1="130" y1="0" x2="1530" y2="1400" stroke="hsl(30 34% 34%)" stroke-width="1" opacity="0.05"/><line x1="215" y1="0" x2="1615" y2="1400" stroke="hsl(30 34% 34%)" stroke-width="1" opacity="0.05"/><line x1="300" y1="0" x2="1700" y2="1400" stroke="hsl(30 34% 34%)" stroke-width="1" opacity="0.05"/><line x1="385" y1="0" x2="1785" y2="1400" stroke="hsl(30 34% 34%)" stroke-width="1" opacity="0.05"/><line x1="470" y1="0" x2="1870" y2="1400" stroke="hsl(30 34% 34%)" stroke-width="1" opacity="0.05"/><line x1="555" y1="0" x2="1955" y2="1400" stroke="hsl(30 34% 34%)" stroke-width="1" opacity="0.05"/><line x1="640" y1="0" x2="2040" y2="1400" stroke="hsl(30 34% 34%)" stroke-width="1" opacity="0.05"/><line x1="725" y1="0" x2="2125" y2="1400" stroke="hsl(30 34% 34%)" stroke-width="1" opacity="0.05"/><line x1="810" y1="0" x2="2210" y2="1400" stroke="hsl(30 34% 34%)" stroke-width="1" opacity="0.05"/><line x1="895" y1="0" x2="2295" y2="1400" stroke="hsl(30 34% 34%)" stroke-width="1" opacity="0.05"/><line x1="980" y1="0" x2="2380" y2="1400" stroke="hsl(30 34% 34%)" stroke-width="1" opacity="0.05"/><line x1="1065" y1="0" x2="2465" y2="1400" stroke="hsl(30 34% 34%)" stroke-width="1" opacity="0.05"/><line x1="1150" y1="0" x2="2550" y2="1400" stroke="hsl(30 34% 34%)" stroke-width="1" opacity="0.05"/><line x1="1235" y1="0" x2="2635" y2="1400" stroke="hsl(30 34% 34%)" stroke-width="1" opacity="0.05"/><line x1="1320" y1="0" x2="2720" y2="1400" stroke="hsl(30 34% 34%)" stroke-width="1" opacity="0.05"/><line x1="1405" y1="0" x2="2805" y2="1400" stroke="hsl(30 34% 34%)" stroke-width="1" opacity="0.05"/><line x1="1490" y1="0" x2="2890" y2="1400" stroke="hsl(30 34% 34%)" stroke-width="1" opacity="0.05"/><line x1="1575" y1="0" x2="2975" y2="1400" stroke="hsl(30 34% 34%)" stroke-width="1" opacity="0.05"/><line x1="1660" y1="0" x2="3060" y2="1400" stroke="hsl(30 34% 34%)" stroke-width="1" opacity="0.05"/><line x1="1745" y1="0" x2="3145" y2="1400" stroke="hsl(30 34% 34%)" stroke-width="1" opacity="0.05"/><line x1="1830" y1="0" x2="3230" y2="1400" stroke="hsl(30 34% 34%)" stroke-width="1" opacity="0.05"/><line x1="1915" y1="0" x2="3315" y2="1400" stroke="hsl(30 34% 34%)" stroke-width="1" opacity="0.05"/><line x1="2000" y1="0" x2="3400" y2="1400" stroke="hsl(30 34% 34%)" stroke-width="1" opacity="0.05"/><line x1="2085" y1="0" x2="3485" y2="1400" stroke="hsl(30 34% 34%)" stroke-width="1" opacity="0.05"/><line x1="2170" y1="0" x2="3570" y2="1400" stroke="hsl(30 34% 34%)" stroke-width="1" opacity="0.05"/><line x1="2255" y1="0" x2="3655" y2="1400" stroke="hsl(30 34% 34%)" stroke-width="1" opacity="0.05"/><line x1="2340" y1="0" x2="3740" y2="1400" stroke="hsl(30 34% 34%)" stroke-width="1" opacity="0.05"/><line x1="2425" y1="0" x2="3825" y2="1400" stroke="hsl(30 34% 34%)" stroke-width="1" opacity="0.05"/><line x1="2510" y1="0" x2="3910" y2="1400" stroke="hsl(30 34% 34%)" stroke-width="1" opacity="0.05"/><line x1="2595" y1="0" x2="3995" y2="1400" stroke="hsl(30 34% 34%)" stroke-width="1" opacity="0.05"/>
  <rect width="1200" height="1400" fill="url(#glow)"/>
  <circle cx="600" cy="728" r="192" fill="none" stroke="hsl(30 34% 40%)" stroke-width="3.0" opacity="0.20"/><circle cx="600" cy="728" r="294" fill="none" stroke="hsl(33 34% 38%)" stroke-width="2.7" opacity="0.18"/><circle cx="600" cy="728" r="396" fill="none" stroke="hsl(36 34% 36%)" stroke-width="2.4" opacity="0.15"/><circle cx="600" cy="728" r="498" fill="none" stroke="hsl(39 34% 34%)" stroke-width="2.1" opacity="0.12"/><circle cx="600" cy="728" r="600" fill="none" stroke="hsl(42 34% 32%)" stroke-width="1.8" opacity="0.10"/><circle cx="600" cy="728" r="702" fill="none" stroke="hsl(45 34% 30%)" stroke-width="1.5" opacity="0.08"/><circle cx="600" cy="728" r="804" fill="none" stroke="hsl(48 34% 28%)" stroke-width="1.2" opacity="0.05"/>
  <circle cx="427" cy="23" r="2" fill="hsl(23 34% 23%)" opacity="0.15"/><circle cx="489" cy="34" r="1" fill="hsl(43 34% 22%)" opacity="0.14"/><circle cx="752" cy="490" r="1" fill="hsl(32 34% 32%)" opacity="0.12"/><circle cx="574" cy="803" r="1" fill="hsl(33 34% 25%)" opacity="0.15"/><circle cx="422" cy="727" r="1" fill="hsl(29 34% 27%)" opacity="0.15"/><circle cx="1047" cy="861" r="1" fill="hsl(40 34% 32%)" opacity="0.14"/><circle cx="1002" cy="161" r="2" fill="hsl(40 34% 29%)" opacity="0.09"/><circle cx="645" cy="1322" r="2" fill="hsl(34 34% 42%)" opacity="0.14"/><circle cx="134" cy="1004" r="1" fill="hsl(28 34% 22%)" opacity="0.10"/><circle cx="35" cy="586" r="2" fill="hsl(37 34% 22%)" opacity="0.15"/><circle cx="204" cy="238" r="2" fill="hsl(23 34% 20%)" opacity="0.10"/><circle cx="1136" cy="605" r="2" fill="hsl(38 34% 25%)" opacity="0.06"/><circle cx="1024" cy="724" r="1" fill="hsl(29 34% 27%)" opacity="0.08"/><circle cx="651" cy="792" r="2" fill="hsl(32 34% 32%)" opacity="0.13"/><circle cx="557" cy="971" r="1" fill="hsl(25 34% 39%)" opacity="0.10"/><circle cx="770" cy="31" r="1" fill="hsl(24 34% 27%)" opacity="0.05"/><circle cx="922" cy="121" r="1" fill="hsl(27 34% 33%)" opacity="0.11"/><circle cx="1020" cy="88" r="2" fill="hsl(23 34% 33%)" opacity="0.14"/><circle cx="1166" cy="946" r="1" fill="hsl(40 34% 32%)" opacity="0.12"/><circle cx="523" cy="1389" r="1" fill="hsl(41 34% 18%)" opacity="0.05"/><circle cx="777" cy="888" r="1" fill="hsl(23 34% 37%)" opacity="0.15"/><circle cx="619" cy="1219" r="2" fill="hsl(31 34% 35%)" opacity="0.14"/><circle cx="882" cy="788" r="1" fill="hsl(43 34% 29%)" opacity="0.11"/><circle cx="1061" cy="5" r="1" fill="hsl(30 34% 25%)" opacity="0.10"/><circle cx="1049" cy="677" r="1" fill="hsl(29 34% 39%)" opacity="0.11"/><circle cx="1007" cy="652" r="1" fill="hsl(41 34% 29%)" opacity="0.12"/><circle cx="696" cy="120" r="1" fill="hsl(42 34% 34%)" opacity="0.13"/><circle cx="221" cy="1179" r="2" fill="hsl(32 34% 22%)" opacity="0.08"/><circle cx="645" cy="703" r="2" fill="hsl(41 34% 35%)" opacity="0.11"/><circle cx="1171" cy="248" r="2" fill="hsl(40 34% 18%)" opacity="0.05"/><circle cx="318" cy="1342" r="2" fill="hsl(27 34% 38%)" opacity="0.06"/><circle cx="1114" cy="1126" r="2" fill="hsl(32 34% 29%)" opacity="0.09"/><circle cx="1140" cy="1324" r="2" fill="hsl(42 34% 21%)" opacity="0.16"/><circle cx="956" cy="1202" r="1" fill="hsl(44 34% 39%)" opacity="0.13"/><circle cx="693" cy="941" r="2" fill="hsl(40 34% 39%)" opacity="0.16"/><circle cx="58" cy="557" r="1" fill="hsl(26 34% 42%)" opacity="0.07"/><circle cx="382" cy="123" r="2" fill="hsl(44 34% 36%)" opacity="0.13"/><circle cx="203" cy="137" r="3" fill="hsl(30 34% 24%)" opacity="0.13"/><circle cx="144" cy="909" r="2" fill="hsl(27 34% 25%)" opacity="0.08"/><circle cx="114" cy="754" r="2" fill="hsl(29 34% 31%)" opacity="0.13"/><circle cx="348" cy="762" r="2" fill="hsl(26 34% 34%)" opacity="0.06"/><circle cx="969" cy="958" r="2" fill="hsl(41 34% 23%)" opacity="0.09"/><circle cx="866" cy="561" r="2" fill="hsl(29 34% 39%)" opacity="0.15"/><circle cx="48" cy="925" r="1" fill="hsl(34 34% 38%)" opacity="0.06"/><circle cx="1196" cy="7" r="2" fill="hsl(43 34% 32%)" opacity="0.09"/><circle cx="688" cy="923" r="2" fill="hsl(41 34% 26%)" opacity="0.09"/><circle cx="905" cy="829" r="3" fill="hsl(42 34% 34%)" opacity="0.13"/><circle cx="340" cy="1369" r="1" fill="hsl(36 34% 33%)" opacity="0.08"/><circle cx="1169" cy="959" r="2" fill="hsl(24 34% 24%)" opacity="0.14"/><circle cx="348" cy="1129" r="2" fill="hsl(34 34% 39%)" opacity="0.05"/><circle cx="817" cy="1397" r="1" fill="hsl(32 34% 32%)" opacity="0.07"/><circle cx="555" cy="848" r="1" fill="hsl(31 34% 40%)" opacity="0.12"/><circle cx="552" cy="334" r="2" fill="hsl(30 34% 27%)" opacity="0.06"/><circle cx="1045" cy="492" r="1" fill="hsl(37 34% 34%)" opacity="0.16"/><circle cx="496" cy="443" r="2" fill="hsl(35 34% 25%)" opacity="0.11"/><circle cx="834" cy="1321" r="2" fill="hsl(42 34% 38%)" opacity="0.12"/><circle cx="963" cy="462" r="1" fill="hsl(34 34% 29%)" opacity="0.16"/><circle cx="774" cy="673" r="3" fill="hsl(32 34% 21%)" opacity="0.13"/><circle cx="1016" cy="462" r="3" fill="hsl(29 34% 36%)" opacity="0.12"/><circle cx="149" cy="366" r="3" fill="hsl(38 34% 40%)" opacity="0.08"/><circle cx="440" cy="489" r="2" fill="hsl(30 34% 33%)" opacity="0.14"/><circle cx="480" cy="994" r="1" fill="hsl(27 34% 34%)" opacity="0.12"/><circle cx="439" cy="1146" r="2" fill="hsl(41 34% 42%)" opacity="0.12"/><circle cx="673" cy="1274" r="1" fill="hsl(41 34% 19%)" opacity="0.07"/><circle cx="123" cy="455" r="1" fill="hsl(33 34% 30%)" opacity="0.08"/><circle cx="606" cy="1208" r="3" fill="hsl(40 34% 28%)" opacity="0.08"/><circle cx="863" cy="1343" r="2" fill="hsl(42 34% 30%)" opacity="0.13"/><circle cx="973" cy="1167" r="3" fill="hsl(29 34% 31%)" opacity="0.12"/><circle cx="343" cy="893" r="1" fill="hsl(25 34% 19%)" opacity="0.11"/><circle cx="90" cy="1292" r="2" fill="hsl(41 34% 35%)" opacity="0.14"/><circle cx="735" cy="314" r="1" fill="hsl(39 34% 29%)" opacity="0.15"/><circle cx="186" cy="284" r="1" fill="hsl(33 34% 34%)" opacity="0.15"/><circle cx="1056" cy="1040" r="1" fill="hsl(36 34% 34%)" opacity="0.04"/><circle cx="15" cy="1198" r="2" fill="hsl(37 34% 25%)" opacity="0.12"/><circle cx="347" cy="1038" r="2" fill="hsl(34 34% 25%)" opacity="0.14"/><circle cx="448" cy="873" r="1" fill="hsl(42 34% 33%)" opacity="0.05"/><circle cx="1118" cy="375" r="2" fill="hsl(40 34% 27%)" opacity="0.15"/><circle cx="646" cy="1286" r="1" fill="hsl(30 34% 22%)" opacity="0.10"/><circle cx="24" cy="499" r="1" fill="hsl(36 34% 22%)" opacity="0.13"/><circle cx="813" cy="576" r="3" fill="hsl(24 34% 37%)" opacity="0.10"/><circle cx="454" cy="1369" r="3" fill="hsl(23 34% 41%)" opacity="0.10"/><circle cx="713" cy="346" r="1" fill="hsl(28 34% 21%)" opacity="0.05"/><circle cx="753" cy="1398" r="1" fill="hsl(29 34% 22%)" opacity="0.15"/><circle cx="604" cy="887" r="1" fill="hsl(40 34% 33%)" opacity="0.07"/><circle cx="45" cy="278" r="2" fill="hsl(42 34% 39%)" opacity="0.13"/><circle cx="77" cy="765" r="2" fill="hsl(24 34% 33%)" opacity="0.08"/><circle cx="346" cy="1325" r="3" fill="hsl(33 34% 35%)" opacity="0.05"/><circle cx="943" cy="114" r="2" fill="hsl(43 34% 28%)" opacity="0.11"/><circle cx="340" cy="492" r="2" fill="hsl(44 34% 29%)" opacity="0.09"/><circle cx="1187" cy="813" r="3" fill="hsl(33 34% 30%)" opacity="0.05"/><circle cx="567" cy="1392" r="2" fill="hsl(29 34% 37%)" opacity="0.05"/><circle cx="140" cy="445" r="2" fill="hsl(28 34% 28%)" opacity="0.05"/><circle cx="734" cy="447" r="1" fill="hsl(34 34% 40%)" opacity="0.06"/><circle cx="1123" cy="852" r="1" fill="hsl(40 34% 38%)" opacity="0.04"/><circle cx="13" cy="291" r="1" fill="hsl(25 34% 33%)" opacity="0.16"/><circle cx="371" cy="1058" r="2" fill="hsl(44 34% 32%)" opacity="0.13"/><circle cx="94" cy="238" r="3" fill="hsl(25 34% 30%)" opacity="0.06"/><circle cx="43" cy="262" r="2" fill="hsl(31 34% 27%)" opacity="0.11"/><circle cx="656" cy="757" r="2" fill="hsl(41 34% 34%)" opacity="0.07"/><circle cx="137" cy="307" r="1" fill="hsl(34 34% 28%)" opacity="0.11"/><circle cx="1019" cy="1295" r="2" fill="hsl(30 34% 34%)" opacity="0.06"/><circle cx="908" cy="605" r="1" fill="hsl(22 34% 29%)" opacity="0.09"/><circle cx="469" cy="827" r="1" fill="hsl(42 34% 26%)" opacity="0.05"/><circle cx="408" cy="138" r="1" fill="hsl(23 34% 39%)" opacity="0.08"/><circle cx="1055" cy="477" r="3" fill="hsl(31 34% 18%)" opacity="0.04"/><circle cx="302" cy="272" r="1" fill="hsl(43 34% 37%)" opacity="0.11"/><circle cx="651" cy="410" r="1" fill="hsl(24 34% 39%)" opacity="0.16"/><circle cx="308" cy="1057" r="1" fill="hsl(29 34% 37%)" opacity="0.10"/><circle cx="47" cy="358" r="1" fill="hsl(41 34% 26%)" opacity="0.15"/><circle cx="433" cy="392" r="2" fill="hsl(31 34% 22%)" opacity="0.10"/><circle cx="297" cy="1276" r="1" fill="hsl(32 34% 36%)" opacity="0.13"/><circle cx="1032" cy="107" r="1" fill="hsl(22 34% 35%)" opacity="0.07"/><circle cx="180" cy="1140" r="1" fill="hsl(39 34% 36%)" opacity="0.06"/><circle cx="427" cy="763" r="3" fill="hsl(25 34% 30%)" opacity="0.06"/><circle cx="138" cy="104" r="2" fill="hsl(40 34% 23%)" opacity="0.14"/><circle cx="488" cy="567" r="2" fill="hsl(38 34% 23%)" opacity="0.11"/><circle cx="384" cy="654" r="1" fill="hsl(38 34% 42%)" opacity="0.05"/><circle cx="126" cy="861" r="1" fill="hsl(27 34% 30%)" opacity="0.11"/><circle cx="1192" cy="1343" r="2" fill="hsl(37 34% 20%)" opacity="0.13"/><circle cx="942" cy="484" r="3" fill="hsl(37 34% 28%)" opacity="0.07"/><circle cx="774" cy="287" r="1" fill="hsl(30 34% 36%)" opacity="0.05"/><circle cx="572" cy="1270" r="2" fill="hsl(44 34% 25%)" opacity="0.13"/><circle cx="741" cy="1010" r="1" fill="hsl(35 34% 35%)" opacity="0.10"/><circle cx="937" cy="1008" r="3" fill="hsl(36 34% 24%)" opacity="0.13"/><circle cx="1026" cy="687" r="2" fill="hsl(36 34% 29%)" opacity="0.07"/><circle cx="1163" cy="676" r="1" fill="hsl(33 34% 31%)" opacity="0.09"/><circle cx="534" cy="1237" r="1" fill="hsl(42 34% 37%)" opacity="0.10"/><circle cx="159" cy="282" r="1" fill="hsl(34 34% 29%)" opacity="0.13"/><circle cx="81" cy="897" r="1" fill="hsl(43 34% 26%)" opacity="0.11"/><circle cx="989" cy="1357" r="2" fill="hsl(28 34% 32%)" opacity="0.08"/><circle cx="491" cy="165" r="1" fill="hsl(43 34% 41%)" opacity="0.14"/><circle cx="643" cy="1272" r="1" fill="hsl(34 34% 19%)" opacity="0.06"/><circle cx="988" cy="219" r="2" fill="hsl(40 34% 28%)" opacity="0.12"/><circle cx="360" cy="928" r="1" fill="hsl(42 34% 18%)" opacity="0.07"/><circle cx="544" cy="846" r="1" fill="hsl(41 34% 23%)" opacity="0.12"/><circle cx="1143" cy="530" r="3" fill="hsl(44 34% 35%)" opacity="0.05"/><circle cx="376" cy="260" r="2" fill="hsl(26 34% 21%)" opacity="0.15"/><circle cx="63" cy="768" r="1" fill="hsl(41 34% 25%)" opacity="0.04"/><circle cx="940" cy="1055" r="1" fill="hsl(23 34% 31%)" opacity="0.13"/><circle cx="941" cy="257" r="2" fill="hsl(33 34% 39%)" opacity="0.11"/><circle cx="568" cy="611" r="2" fill="hsl(30 34% 20%)" opacity="0.05"/><circle cx="520" cy="1229" r="1" fill="hsl(42 34% 25%)" opacity="0.05"/><circle cx="74" cy="556" r="1" fill="hsl(44 34% 40%)" opacity="0.04"/><circle cx="906" cy="383" r="1" fill="hsl(37 34% 38%)" opacity="0.14"/><circle cx="344" cy="721" r="2" fill="hsl(24 34% 30%)" opacity="0.10"/><circle cx="476" cy="451" r="3" fill="hsl(27 34% 26%)" opacity="0.08"/><circle cx="532" cy="1208" r="3" fill="hsl(38 34% 21%)" opacity="0.13"/><circle cx="1007" cy="1046" r="3" fill="hsl(31 34% 26%)" opacity="0.05"/><circle cx="534" cy="197" r="2" fill="hsl(42 34% 31%)" opacity="0.16"/><circle cx="417" cy="821" r="2" fill="hsl(27 34% 24%)" opacity="0.14"/><circle cx="578" cy="681" r="2" fill="hsl(31 34% 34%)" opacity="0.15"/><circle cx="951" cy="820" r="1" fill="hsl(30 34% 40%)" opacity="0.04"/><circle cx="938" cy="1040" r="2" fill="hsl(39 34% 39%)" opacity="0.11"/><circle cx="28" cy="930" r="3" fill="hsl(35 34% 20%)" opacity="0.10"/><circle cx="3" cy="359" r="1" fill="hsl(26 34% 32%)" opacity="0.10"/><circle cx="237" cy="1090" r="2" fill="hsl(43 34% 29%)" opacity="0.04"/><circle cx="981" cy="397" r="2" fill="hsl(41 34% 24%)" opacity="0.05"/><circle cx="432" cy="869" r="1" fill="hsl(23 34% 19%)" opacity="0.13"/><circle cx="868" cy="275" r="1" fill="hsl(28 34% 39%)" opacity="0.14"/><circle cx="1075" cy="403" r="2" fill="hsl(30 34% 41%)" opacity="0.07"/><circle cx="909" cy="1034" r="1" fill="hsl(24 34% 18%)" opacity="0.09"/><circle cx="11" cy="77" r="1" fill="hsl(31 34% 35%)" opacity="0.06"/><circle cx="195" cy="162" r="2" fill="hsl(32 34% 22%)" opacity="0.09"/><circle cx="1124" cy="1113" r="1" fill="hsl(38 34% 34%)" opacity="0.04"/><circle cx="1003" cy="786" r="2" fill="hsl(29 34% 23%)" opacity="0.10"/><circle cx="1031" cy="1210" r="2" fill="hsl(24 34% 25%)" opacity="0.06"/><circle cx="918" cy="1142" r="1" fill="hsl(28 34% 42%)" opacity="0.13"/><circle cx="275" cy="1062" r="1" fill="hsl(32 34% 37%)" opacity="0.10"/><circle cx="200" cy="999" r="2" fill="hsl(43 34% 37%)" opacity="0.10"/><circle cx="465" cy="771" r="3" fill="hsl(38 34% 30%)" opacity="0.10"/><circle cx="1020" cy="593" r="1" fill="hsl(40 34% 42%)" opacity="0.09"/><circle cx="673" cy="696" r="2" fill="hsl(34 34% 42%)" opacity="0.13"/><circle cx="211" cy="1086" r="2" fill="hsl(23 34% 19%)" opacity="0.14"/><circle cx="9" cy="608" r="1" fill="hsl(42 34% 42%)" opacity="0.13"/><circle cx="838" cy="1078" r="1" fill="hsl(28 34% 40%)" opacity="0.07"/><circle cx="87" cy="451" r="2" fill="hsl(33 34% 37%)" opacity="0.13"/><circle cx="918" cy="603" r="1" fill="hsl(26 34% 42%)" opacity="0.13"/><circle cx="470" cy="563" r="1" fill="hsl(33 34% 39%)" opacity="0.14"/><circle cx="672" cy="628" r="1" fill="hsl(28 34% 30%)" opacity="0.06"/><circle cx="567" cy="52" r="3" fill="hsl(39 34% 19%)" opacity="0.11"/><circle cx="476" cy="139" r="3" fill="hsl(30 34% 29%)" opacity="0.12"/><circle cx="206" cy="885" r="1" fill="hsl(42 34% 35%)" opacity="0.08"/><circle cx="923" cy="366" r="1" fill="hsl(28 34% 25%)" opacity="0.13"/><circle cx="1106" cy="1340" r="1" fill="hsl(30 34% 26%)" opacity="0.12"/><circle cx="1063" cy="701" r="2" fill="hsl(34 34% 31%)" opacity="0.08"/><circle cx="152" cy="613" r="1" fill="hsl(23 34% 28%)" opacity="0.15"/><circle cx="192" cy="1309" r="1" fill="hsl(38 34% 28%)" opacity="0.06"/><circle cx="744" cy="278" r="1" fill="hsl(44 34% 18%)" opacity="0.07"/><circle cx="175" cy="278" r="3" fill="hsl(25 34% 28%)" opacity="0.13"/><circle cx="311" cy="1132" r="2" fill="hsl(40 34% 37%)" opacity="0.07"/><circle cx="993" cy="1106" r="3" fill="hsl(35 34% 33%)" opacity="0.13"/><circle cx="1100" cy="93" r="1" fill="hsl(26 34% 26%)" opacity="0.06"/><circle cx="341" cy="1142" r="2" fill="hsl(42 34% 42%)" opacity="0.09"/><circle cx="364" cy="1216" r="2" fill="hsl(41 34% 29%)" opacity="0.10"/><circle cx="711" cy="892" r="1" fill="hsl(28 34% 41%)" opacity="0.10"/><circle cx="257" cy="470" r="1" fill="hsl(39 34% 24%)" opacity="0.05"/><circle cx="239" cy="869" r="3" fill="hsl(26 34% 28%)" opacity="0.08"/><circle cx="461" cy="620" r="1" fill="hsl(22 34% 42%)" opacity="0.13"/><circle cx="411" cy="582" r="1" fill="hsl(28 34% 22%)" opacity="0.07"/><circle cx="180" cy="965" r="2" fill="hsl(36 34% 39%)" opacity="0.05"/><circle cx="292" cy="45" r="3" fill="hsl(44 34% 26%)" opacity="0.08"/><circle cx="456" cy="1139" r="1" fill="hsl(23 34% 24%)" opacity="0.16"/><circle cx="693" cy="946" r="2" fill="hsl(26 34% 30%)" opacity="0.07"/><circle cx="537" cy="46" r="1" fill="hsl(24 34% 22%)" opacity="0.06"/><circle cx="1178" cy="1062" r="1" fill="hsl(22 34% 32%)" opacity="0.09"/><circle cx="148" cy="210" r="2" fill="hsl(24 34% 20%)" opacity="0.14"/><circle cx="661" cy="500" r="1" fill="hsl(30 34% 21%)" opacity="0.07"/><circle cx="1146" cy="245" r="2" fill="hsl(35 34% 39%)" opacity="0.10"/><circle cx="1119" cy="105" r="1" fill="hsl(30 34% 19%)" opacity="0.12"/><circle cx="964" cy="374" r="3" fill="hsl(33 34% 29%)" opacity="0.09"/><circle cx="994" cy="1204" r="2" fill="hsl(35 34% 40%)" opacity="0.05"/><circle cx="971" cy="1034" r="1" fill="hsl(38 34% 21%)" opacity="0.15"/><circle cx="321" cy="963" r="2" fill="hsl(43 34% 19%)" opacity="0.14"/><circle cx="1194" cy="390" r="1" fill="hsl(37 34% 36%)" opacity="0.09"/><circle cx="559" cy="1263" r="1" fill="hsl(35 34% 27%)" opacity="0.13"/><circle cx="984" cy="457" r="1" fill="hsl(41 34% 39%)" opacity="0.11"/><circle cx="1084" cy="1138" r="1" fill="hsl(36 34% 26%)" opacity="0.05"/><circle cx="410" cy="562" r="1" fill="hsl(41 34% 41%)" opacity="0.15"/><circle cx="593" cy="203" r="2" fill="hsl(42 34% 35%)" opacity="0.06"/><circle cx="540" cy="602" r="3" fill="hsl(39 34% 26%)" opacity="0.14"/>
  <g fill="none" stroke="hsl(40 80% 62%)" stroke-width="2" opacity="0.5">
    <path d="M42 84 V42 H84"/>
    <path d="M1116 42 H1158 V84"/>
    <path d="M42 1316 V1358 H84"/>
    <path d="M1158 1316 V1358 H1116"/>
  </g>
  <g text-anchor="middle" font-family="Helvetica Neue, Arial, sans-serif"><text x="600" y="700" font-size="57" font-weight="700" letter-spacing="3.4" fill="#f4efe6" opacity="0.92">A EQUIPE</text><text x="600" y="766" font-size="23" letter-spacing="5.1" fill="#f4efe6" opacity="0.45">PLACEHOLDER · 1200×1400</text></g>
</svg>
